<?xml version="1.0" encoding="UTF-8"?>
<svg xmlns="http://www.w3.org/2000/svg" xmlns:xlink="http://www.w3.org/1999/xlink" viewBox="0 0 32 32" width="32px" height="32px">
<g id="surface45580045">
<path style=" stroke:none;fill-rule:nonzero;fill:rgb(80.000001%,80.000001%,80.000001%);fill-opacity:1;" d="M 16 15.519531 C 16.265625 15.519531 16.480469 15.734375 16.480469 16 C 16.480469 16.265625 16.265625 16.480469 16 16.480469 C 15.734375 16.480469 15.519531 16.265625 15.519531 16 C 15.519531 15.734375 15.734375 15.519531 16 15.519531 Z M 16 15.519531 "/>
<path style=" stroke:none;fill-rule:nonzero;fill:rgb(100%,100%,100%);fill-opacity:1;" d="M 15 3.949219 C 8.90625 3.949219 3.949219 8.90625 3.949219 15 C 3.949219 21.09375 8.90625 26.050781 15 26.050781 C 21.09375 26.050781 26.050781 21.09375 26.050781 15 C 26.050781 8.90625 21.09375 3.949219 15 3.949219 Z M 15 5.648438 C 20.175781 5.648438 24.351562 9.824219 24.351562 15 C 24.351562 19.703125 20.894531 23.570312 16.382812 24.238281 L 16.382812 17.703125 L 19.019531 17.703125 L 19.4375 15.023438 L 16.382812 15.023438 L 16.382812 13.554688 C 16.382812 12.441406 16.742188 11.453125 17.785156 11.453125 L 19.460938 11.453125 L 19.460938 9.113281 C 19.164062 9.074219 18.542969 8.988281 17.367188 8.988281 C 14.914062 8.988281 13.472656 10.285156 13.472656 13.238281 L 13.472656 15.019531 L 10.949219 15.019531 L 10.949219 17.703125 L 13.476562 17.703125 L 13.476562 24.214844 C 9.03125 23.488281 5.648438 19.652344 5.648438 15 C 5.648438 9.824219 9.824219 5.648438 15 5.648438 Z M 15 5.648438 "/>
</g>
</svg>
