<?xml version="1.0" encoding="UTF-8"?>
<svg xmlns="http://www.w3.org/2000/svg" xmlns:xlink="http://www.w3.org/1999/xlink" viewBox="0 0 32 32" width="32px" height="32px">
<g id="surface45547865">
<path style=" stroke:none;fill-rule:nonzero;fill:rgb(100%,100%,100%);fill-opacity:1;" d="M 0 16 C 0 7.164062 7.164062 0 16 0 C 24.835938 0 32 7.164062 32 16 C 32 24.835938 24.835938 32 16 32 C 7.164062 32 0 24.835938 0 16 Z M 16 31.359375 C 24.484375 31.359375 31.359375 24.484375 31.359375 16 C 31.359375 7.515625 24.484375 0.640625 16 0.640625 C 7.515625 0.640625 0.640625 7.515625 0.640625 16 C 0.640625 24.484375 7.515625 31.359375 16 31.359375 Z M 16 31.359375 "/>
<path style=" stroke:none;fill-rule:nonzero;fill:rgb(100%,100%,100%);fill-opacity:1;" d="M 26.4375 8.734375 C 25.65625 9.070312 24.871094 9.320312 24.003906 9.402344 C 24.871094 8.902344 25.570312 8.058594 25.914062 7.136719 C 25.042969 7.636719 24.175781 7.976562 23.222656 8.144531 C 22.347656 7.308594 21.21875 6.800781 20 6.800781 C 17.652344 6.800781 15.738281 8.652344 15.738281 10.921875 C 15.738281 11.253906 15.738281 11.59375 15.824219 11.847656 C 11.339844 11.847656 8.265625 9.320312 6.179688 6.800781 C 5.746094 7.386719 5.570312 8.144531 5.570312 8.902344 C 5.570312 10.328125 6.355469 11.59375 7.484375 12.351562 C 6.785156 12.269531 6.09375 12.101562 5.570312 11.847656 C 5.570312 11.847656 5.570312 11.847656 5.570312 11.929688 C 5.570312 13.953125 7.046875 15.628906 8.964844 15.964844 C 8.617188 16.046875 8.265625 16.136719 7.828125 16.136719 C 7.574219 16.136719 7.3125 16.136719 7.046875 16.054688 C 7.574219 17.738281 10 19.671875 11.910156 19.671875 C 10.433594 20.761719 9.058594 21.710938 6.308594 21.710938 C 5.960938 21.710938 6.238281 21.710938 5.5625 21.710938 C 7.472656 22.886719 9.738281 23.199219 12.085938 23.199219 C 20 23.199219 24.265625 16.894531 24.265625 11.425781 C 24.265625 11.253906 24.265625 11.09375 24.265625 10.921875 C 25.132812 10.328125 25.832031 9.578125 26.4375 8.734375 "/>
</g>
</svg>
