<?xml version="1.0" encoding="UTF-8"?>
<svg xmlns="http://www.w3.org/2000/svg" xmlns:xlink="http://www.w3.org/1999/xlink" viewBox="0 0 32 32" width="32px" height="32px">
<g id="surface45595786">
<path style=" stroke:none;fill-rule:nonzero;fill:rgb(98.039216%,97.647059%,97.647059%);fill-opacity:1;" d="M -0.320312 16 C -0.320312 6.988281 6.988281 -0.320312 16 -0.320312 C 25.011719 -0.320312 32.320312 6.988281 32.320312 16 C 32.320312 25.011719 25.011719 32.320312 16 32.320312 C 6.988281 32.320312 -0.320312 25.011719 -0.320312 16 Z M 16 31.679688 C 24.660156 31.679688 31.679688 24.660156 31.679688 16 C 31.679688 7.339844 24.660156 0.320312 16 0.320312 C 7.339844 0.320312 0.320312 7.339844 0.320312 16 C 0.320312 24.660156 7.339844 31.679688 16 31.679688 Z M 16 31.679688 "/>
<path style=" stroke:none;fill-rule:nonzero;fill:rgb(100%,100%,100%);fill-opacity:1;" d="M 11.183594 5.898438 C 8.273438 5.898438 5.898438 8.273438 5.898438 11.183594 L 5.898438 18.824219 C 5.898438 21.726562 8.273438 24.101562 11.183594 24.101562 L 18.824219 24.101562 C 21.726562 24.101562 24.101562 21.726562 24.101562 18.816406 L 24.101562 11.183594 C 24.101562 8.273438 21.726562 5.898438 18.816406 5.898438 Z M 11.183594 7.300781 L 18.816406 7.300781 C 20.972656 7.300781 22.699219 9.027344 22.699219 11.183594 L 22.699219 18.816406 C 22.699219 20.972656 20.972656 22.699219 18.824219 22.699219 L 11.183594 22.699219 C 9.027344 22.699219 7.300781 20.972656 7.300781 18.824219 L 7.300781 11.183594 C 7.300781 9.027344 9.027344 7.300781 11.183594 7.300781 Z M 20.601562 8.699219 C 20.210938 8.699219 19.898438 9.011719 19.898438 9.398438 C 19.898438 9.789062 20.210938 10.101562 20.601562 10.101562 C 20.988281 10.101562 21.300781 9.789062 21.300781 9.398438 C 21.300781 9.011719 20.988281 8.699219 20.601562 8.699219 Z M 15 10.101562 C 12.304688 10.101562 10.101562 12.304688 10.101562 15 C 10.101562 17.695312 12.304688 19.898438 15 19.898438 C 17.695312 19.898438 19.898438 17.695312 19.898438 15 C 19.898438 12.304688 17.695312 10.101562 15 10.101562 Z M 15 11.5 C 16.941406 11.5 18.5 13.058594 18.5 15 C 18.5 16.941406 16.941406 18.5 15 18.5 C 13.058594 18.5 11.5 16.941406 11.5 15 C 11.5 13.058594 13.058594 11.5 15 11.5 Z M 15 11.5 "/>
</g>
</svg>
